<?xml version="1.0" encoding="utf-8"?>
<!-- Generator: Adobe Illustrator 25.4.1, SVG Export Plug-In . SVG Version: 6.00 Build 0)  -->
<svg version="1.1" id="Capa_1" xmlns="http://www.w3.org/2000/svg" xmlns:xlink="http://www.w3.org/1999/xlink" x="0px" y="0px"
	 viewBox="0 0 600 600" style="enable-background:new 0 0 600 600;" xml:space="preserve">
<style type="text/css">
	.st0{fill:#3A3B3F;}
</style>
<path class="st0" d="M51.47,547.26c14.58-29.21,28.93-58.54,43.92-87.54c3.56-6.89,3.62-11.52-1.05-18.18
	C-9.55,293.2,78.95,83.24,257.57,53.83C396.48,30.95,523.72,122.5,546.8,261.92c21.95,132.55-71.52,262.49-204.57,284.11
	c-67.99,11.05-130.45-3.01-186.93-42.58c-4.31-3.02-7.43-2.92-11.83-0.69c-30.23,15.31-60.58,30.39-90.9,45.54
	C52.2,547.95,51.84,547.6,51.47,547.26z M175.52,268.55c-18.15-0.37-32,13.43-32.4,32.27c-0.34,15.86,14.83,30.7,31.69,31.02
	c15.89,0.3,31.27-14.48,31.57-30.35C206.74,283.25,193.31,268.92,175.52,268.55z M299.79,331.42c17.61-0.06,31.85-14.14,31.67-31.29
	c-0.19-17.62-14.13-31.63-31.54-31.69c-17.75-0.06-31.5,13.97-31.6,32.25C268.22,317.45,282.59,331.48,299.79,331.42z
	 M424.87,331.35c17.55,0.02,31.73-14.06,31.62-31.39c-0.12-17.54-14.25-31.52-31.75-31.42c-17.76,0.11-31.37,13.68-31.51,31.43
	C393.09,317.26,407.27,331.32,424.87,331.35z"/>
</svg>
