<?xml version="1.0" encoding="utf-8"?>
<!-- Generator: Adobe Illustrator 25.4.1, SVG Export Plug-In . SVG Version: 6.00 Build 0)  -->
<svg version="1.1" id="Capa_1" xmlns="http://www.w3.org/2000/svg" xmlns:xlink="http://www.w3.org/1999/xlink" x="0px" y="0px"
	 viewBox="0 0 900 300" style="enable-background:new 0 0 900 300;" xml:space="preserve">
<path d="M48.92,138.35c4.19-13.3,6.88-27.32,12.84-39.78c21.34-44.65,72.49-70.81,120.36-62.82c52.47,8.76,91.47,48.14,98.24,99.17
	c8.54,64.44-35.45,122.32-99.78,131.29c-62.18,8.67-119.99-34.73-130.19-97.7c-0.28-1.75-0.97-3.44-1.47-5.16
	C48.92,155.02,48.92,146.69,48.92,138.35z"/>
<path d="M731.83,267.06c-64.88-0.84-116.56-53.38-115.63-117.55c0.93-64.21,54.01-116.08,117.52-114.85
	c65.1,1.26,116.19,53.56,115.18,117.92C847.91,216.39,795.24,267.89,731.83,267.06z"/>
<path d="M448.68,34.64c64.11-0.29,115.97,51.25,116.48,115.76c0.51,64.27-51.9,116.82-116.35,116.67
	c-64.33-0.15-116.01-51.85-116.09-116.15C332.65,86.69,384.26,34.93,448.68,34.64z"/>
</svg>
