<?xml version="1.0" encoding="utf-8"?>
<!-- Generator: Adobe Illustrator 25.4.1, SVG Export Plug-In . SVG Version: 6.00 Build 0)  -->
<svg version="1.1" id="Capa_1" xmlns="http://www.w3.org/2000/svg" xmlns:xlink="http://www.w3.org/1999/xlink" x="0px" y="0px"
	 viewBox="0 0 389.31 486.64" style="enable-background:new 0 0 389.31 486.64;" xml:space="preserve">
<style type="text/css">
	.st0{fill-rule:evenodd;clip-rule:evenodd;fill:#020203;}
</style>
<path class="st0" d="M194.8,43.45c-22.74,0.67-27.35,10.5-34.88,31.16c-2.31,6.32-5.4,11.62-16.11,15.68
	c-45.89,17.4-58.42,52.55-61.54,89.51c-3.12,36.96,3.17,75.74-5.07,100.41c-4.13,12.36-16.96,27.09-26.93,43.64
	c-9.97,16.55-17.07,34.93-9.73,54.6H194.8h154.27c7.33-19.67,0.23-38.05-9.73-54.6c-9.97-16.55-22.8-31.28-26.93-43.64
	c-8.24-24.66-1.95-63.44-5.07-100.41c-3.12-36.96-15.66-72.11-61.54-89.51c-10.71-4.06-13.81-9.36-16.11-15.68
	C222.15,53.94,217.54,44.12,194.8,43.45L194.8,43.45z M250.46,400.2c-6.65,22.77-27.19,42.83-55.66,43.25
	c-28.47-0.42-49.01-20.48-55.66-43.25l55.66,0.05L250.46,400.2z"/>
</svg>
